<svg width="18" height="18" viewBox="0 0 18 18" fill="none" xmlns="http://www.w3.org/2000/svg">
<path d="M5.0004 5.72792C4.92025 6.58292 4.864 8.09604 5.36884 8.7401C5.36884 8.7401 5.13118 7.07792 7.26165 4.99245C8.11946 4.15292 8.31775 3.01104 8.01822 2.15464C7.84806 1.66948 7.53728 1.2687 7.26728 0.988854C7.10978 0.824323 7.23071 0.552917 7.45993 0.562761C8.8465 0.624636 11.0937 1.00995 12.0485 3.4062C12.4676 4.45807 12.4985 5.5451 12.2988 6.65042C12.1723 7.35635 11.7223 8.92573 12.7488 9.11839C13.4815 9.2562 13.8359 8.67401 13.9948 8.25495C14.0609 8.08057 14.2901 8.03698 14.4138 8.1762C15.6513 9.58385 15.7568 11.2418 15.5009 12.6692C15.0059 15.4282 12.2117 17.4364 9.43571 17.4364C5.9679 17.4364 3.20743 15.4521 2.49165 11.8606C2.20337 10.4107 2.34962 7.54198 4.58556 5.51698C4.7515 5.3651 5.0229 5.5001 5.0004 5.72792Z" fill="url(#paint0_radial_222_494)"/>
<path d="M10.7031 10.8876C9.42478 9.24227 9.99713 7.36493 10.3107 6.6168C10.3529 6.51837 10.2404 6.42555 10.1518 6.48602C9.60197 6.86008 8.47557 7.7404 7.95103 8.9793C7.24088 10.6541 7.2915 11.474 7.71197 12.4752C7.9651 13.0785 7.67119 13.2065 7.52353 13.229C7.3801 13.2515 7.24791 13.1559 7.14244 13.056C6.8401 12.7677 6.62213 12.3923 6.51806 11.9873C6.49556 11.9001 6.38166 11.8762 6.32963 11.9479C5.93588 12.4921 5.73197 13.3654 5.72213 13.9827C5.69119 15.891 7.2676 17.4379 9.17447 17.4379C11.5778 17.4379 13.3285 14.7801 11.9476 12.5582C11.5468 11.9113 11.1699 11.4881 10.7031 10.8876Z" fill="url(#paint1_radial_222_494)"/>
<defs>
<radialGradient id="paint0_radial_222_494" cx="0" cy="0" r="1" gradientUnits="userSpaceOnUse" gradientTransform="translate(8.74891 17.4801) rotate(-179.751) scale(9.92639 16.2872)">
<stop offset="0.3144" stop-color="#FF9800"/>
<stop offset="0.6616" stop-color="#FF6D00"/>
<stop offset="0.9715" stop-color="#F44336"/>
</radialGradient>
<radialGradient id="paint1_radial_222_494" cx="0" cy="0" r="1" gradientTransform="matrix(-0.104904 10.3855 7.81588 0.078977 9.30663 7.60243)" gradientUnits="userSpaceOnUse">
<stop offset="0.2141" stop-color="#FFF176"/>
<stop offset="0.3275" stop-color="#FFF27D"/>
<stop offset="0.4868" stop-color="#FFF48F"/>
<stop offset="0.6722" stop-color="#FFF7AD"/>
<stop offset="0.7931" stop-color="#FFF9C4"/>
<stop offset="0.8221" stop-color="#FFF8BD" stop-opacity="0.804"/>
<stop offset="0.8627" stop-color="#FFF6AB" stop-opacity="0.529"/>
<stop offset="0.9101" stop-color="#FFF38D" stop-opacity="0.2088"/>
<stop offset="0.9409" stop-color="#FFF176" stop-opacity="0"/>
</radialGradient>
</defs>
</svg>
