<svg width="16" height="16" viewBox="0 0 16 16" fill="none" xmlns="http://www.w3.org/2000/svg">
<path d="M4.33366 10.667C4.85588 10.667 5.36421 10.7253 5.85866 10.842C6.3531 10.9587 6.84477 11.1337 7.33366 11.367V4.80033C6.8781 4.53366 6.39477 4.33366 5.88366 4.20033C5.37255 4.06699 4.85588 4.00033 4.33366 4.00033C3.93366 4.00033 3.53644 4.03921 3.14199 4.11699C2.74755 4.19477 2.36699 4.31144 2.00033 4.46699V11.067C2.38921 10.9337 2.77533 10.8337 3.15866 10.767C3.54199 10.7003 3.93366 10.667 4.33366 10.667ZM8.66699 11.367C9.15588 11.1337 9.64755 10.9587 10.142 10.842C10.6364 10.7253 11.1448 10.667 11.667 10.667C12.067 10.667 12.4587 10.7003 12.842 10.767C13.2253 10.8337 13.6114 10.9337 14.0003 11.067V4.46699C13.6337 4.31144 13.2531 4.19477 12.8587 4.11699C12.4642 4.03921 12.067 4.00033 11.667 4.00033C11.1448 4.00033 10.6281 4.06699 10.117 4.20033C9.60588 4.33366 9.12255 4.53366 8.66699 4.80033V11.367ZM8.00033 12.9837C7.84477 12.9837 7.69755 12.9642 7.55866 12.9253C7.41977 12.8864 7.28921 12.8337 7.16699 12.767C6.73366 12.5114 6.2781 12.3198 5.80033 12.192C5.32255 12.0642 4.83366 12.0003 4.33366 12.0003C3.86699 12.0003 3.40866 12.0614 2.95866 12.1837C2.50866 12.3059 2.0781 12.4781 1.66699 12.7003C1.43366 12.8225 1.20866 12.817 0.991992 12.6837C0.775326 12.5503 0.666992 12.3559 0.666992 12.1003V4.06699C0.666992 3.94477 0.697548 3.8281 0.758659 3.71699C0.81977 3.60588 0.911437 3.52255 1.03366 3.46699C1.54477 3.20033 2.0781 3.00033 2.63366 2.86699C3.18921 2.73366 3.75588 2.66699 4.33366 2.66699C4.9781 2.66699 5.60866 2.75033 6.22533 2.91699C6.84199 3.08366 7.43366 3.33366 8.00033 3.66699C8.56699 3.33366 9.15866 3.08366 9.77533 2.91699C10.392 2.75033 11.0225 2.66699 11.667 2.66699C12.2448 2.66699 12.8114 2.73366 13.367 2.86699C13.9225 3.00033 14.4559 3.20033 14.967 3.46699C15.0892 3.52255 15.1809 3.60588 15.242 3.71699C15.3031 3.8281 15.3337 3.94477 15.3337 4.06699V12.1003C15.3337 12.3559 15.2253 12.5503 15.0087 12.6837C14.792 12.817 14.567 12.8225 14.3337 12.7003C13.9225 12.4781 13.492 12.3059 13.042 12.1837C12.592 12.0614 12.1337 12.0003 11.667 12.0003C11.167 12.0003 10.6781 12.0642 10.2003 12.192C9.72255 12.3198 9.26699 12.5114 8.83366 12.767C8.71144 12.8337 8.58088 12.8864 8.44199 12.9253C8.3031 12.9642 8.15588 12.9837 8.00033 12.9837Z" fill="#2D7FF9"/>
</svg>
