<svg width="16" height="16" viewBox="0 0 16 16" fill="none" xmlns="http://www.w3.org/2000/svg">
<path d="M6 1.99935V0.666016H10V1.99935H6ZM7.33333 9.33268H8.66667V5.33268H7.33333V9.33268ZM8 14.666C7.17778 14.666 6.40278 14.5077 5.675 14.191C4.94722 13.8743 4.31111 13.4438 3.76667 12.8993C3.22222 12.3549 2.79167 11.7188 2.475 10.991C2.15833 10.2632 2 9.48824 2 8.66602C2 7.84379 2.15833 7.06879 2.475 6.34102C2.79167 5.61324 3.22222 4.97713 3.76667 4.43268C4.31111 3.88824 4.94722 3.45768 5.675 3.14102C6.40278 2.82435 7.17778 2.66602 8 2.66602C8.68889 2.66602 9.35 2.77713 9.98333 2.99935C10.6167 3.22157 11.2111 3.54379 11.7667 3.96602L12.7 3.03268L13.6333 3.96602L12.7 4.89935C13.1222 5.4549 13.4444 6.04935 13.6667 6.68268C13.8889 7.31602 14 7.97713 14 8.66602C14 9.48824 13.8417 10.2632 13.525 10.991C13.2083 11.7188 12.7778 12.3549 12.2333 12.8993C11.6889 13.4438 11.0528 13.8743 10.325 14.191C9.59722 14.5077 8.82222 14.666 8 14.666ZM8 13.3327C9.28889 13.3327 10.3889 12.8771 11.3 11.966C12.2111 11.0549 12.6667 9.95491 12.6667 8.66602C12.6667 7.37713 12.2111 6.27713 11.3 5.36602C10.3889 4.4549 9.28889 3.99935 8 3.99935C6.71111 3.99935 5.61111 4.4549 4.7 5.36602C3.78889 6.27713 3.33333 7.37713 3.33333 8.66602C3.33333 9.95491 3.78889 11.0549 4.7 11.966C5.61111 12.8771 6.71111 13.3327 8 13.3327Z" fill="#F5F9FF"/>
</svg>
